<?xml version="1.0" standalone="no"?>
<!DOCTYPE svg PUBLIC "-//W3C//DTD SVG 20010904//EN"
 "http://www.w3.org/TR/2001/REC-SVG-20010904/DTD/svg10.dtd">
<svg version="1.0" xmlns="http://www.w3.org/2000/svg"
 width="1024.000000pt" height="1024.000000pt" viewBox="0 0 1024.000000 1024.000000"
 preserveAspectRatio="xMidYMid meet">
<metadata>
Created by potrace 1.14, written by Peter Selinger 2001-2017
</metadata>
<g transform="translate(0.000000,1024.000000) scale(0.100000,-0.100000)"
fill="#000000" stroke="none">
<path d="M4858 10235 c-2 -2 -46 -6 -98 -9 -125 -8 -210 -16 -236 -21 -11 -3
-45 -7 -75 -10 -30 -4 -79 -10 -109 -16 -30 -5 -73 -11 -95 -15 -33 -5 -225
-44 -300 -60 -11 -3 -29 -7 -41 -9 -149 -32 -594 -178 -731 -241 -17 -8 -34
-14 -38 -14 -22 0 -415 -195 -554 -275 -498 -286 -927 -637 -1313 -1076 -381
-431 -702 -959 -913 -1500 -54 -136 -113 -306 -136 -389 -7 -25 -14 -49 -15
-55 -24 -80 -45 -154 -48 -170 -2 -11 -13 -58 -24 -105 -26 -110 -37 -163 -48
-234 -3 -22 -7 -43 -9 -47 -4 -5 -27 -172 -41 -289 -2 -25 -7 -61 -9 -80 -26
-203 -26 -778 1 -1010 8 -69 24 -201 29 -240 11 -79 58 -322 81 -420 168 -718
496 -1401 951 -1980 45 -58 94 -118 108 -135 15 -16 48 -55 73 -85 116 -136
336 -355 497 -496 513 -447 1121 -790 1790 -1009 70 -22 279 -83 312 -90 10
-2 56 -13 103 -24 120 -28 344 -68 480 -86 253 -32 364 -39 670 -39 239 0 392
6 505 19 17 2 50 6 75 9 25 3 68 8 95 12 91 11 338 55 450 80 889 198 1749
658 2393 1279 105 101 232 230 285 290 95 109 132 152 204 242 43 54 80 100
83 103 3 3 25 34 49 70 25 36 48 67 51 70 11 10 138 206 212 330 127 212 266
493 358 725 84 211 189 548 226 724 8 41 17 77 19 81 4 7 14 56 20 104 3 15 6
35 9 45 3 9 8 36 11 61 3 25 8 52 10 60 4 13 27 194 40 305 27 241 27 757 -1
1018 -16 156 -64 457 -89 562 -8 33 -17 74 -19 90 -21 119 -141 502 -229 725
-225 573 -582 1138 -1012 1598 -76 82 -278 279 -330 323 -22 19 -51 45 -65 57
-157 147 -531 414 -790 564 -483 280 -1086 506 -1580 593 -262 46 -360 59
-605 81 -68 6 -632 14 -637 9z m334 -536 c126 -37 220 -146 234 -272 3 -28 7
-675 9 -1437 2 -762 6 -1455 9 -1540 14 -318 22 -469 31 -520 2 -14 7 -52 10
-85 17 -165 76 -395 131 -510 104 -221 317 -407 724 -630 58 -32 125 -69 150
-83 25 -14 99 -54 165 -88 66 -34 167 -87 225 -118 58 -30 150 -78 205 -107
150 -77 394 -206 505 -266 30 -16 93 -50 140 -76 47 -25 105 -57 130 -70 25
-14 70 -38 99 -54 73 -38 137 -101 166 -165 19 -44 31 -57 72 -77 26 -14 55
-30 63 -36 8 -7 45 -29 83 -49 37 -20 102 -57 145 -83 42 -25 97 -57 122 -71
140 -79 308 -177 336 -195 132 -91 146 -272 27 -377 -83 -72 -189 -82 -288
-25 -22 12 -56 32 -75 43 -70 39 -525 302 -540 312 -8 5 -47 27 -87 49 -39 23
-75 45 -78 51 -3 5 -35 10 -69 10 -35 0 -82 6 -104 14 -22 8 -145 72 -273 142
-288 156 -321 174 -484 259 -71 38 -161 85 -200 105 -38 20 -155 81 -260 135
-450 232 -755 409 -937 543 -118 87 -216 178 -337 312 -30 33 -114 153 -137
195 -6 11 -21 38 -34 60 -107 186 -190 490 -225 825 -4 36 -9 72 -10 80 -4 22
-17 213 -20 295 -2 39 -6 156 -10 260 -5 105 -8 825 -9 1600 l-1 1410 26 55
c68 144 227 220 371 179z m-2139 -641 c77 -23 114 -72 328 -443 274 -475 272
-471 272 -542 0 -133 -94 -232 -227 -238 -89 -5 -164 36 -220 121 -20 29 -36
56 -36 58 0 2 -64 114 -141 248 -78 133 -150 259 -161 278 -11 19 -33 58 -49
85 -17 28 -42 74 -56 104 -52 109 -17 240 83 302 64 39 134 49 207 27z m4331
-30 c94 -65 134 -169 103 -268 -7 -25 -65 -133 -127 -240 -62 -107 -118 -204
-124 -215 -78 -144 -219 -376 -246 -405 -88 -92 -225 -100 -323 -19 -58 47
-81 101 -82 184 l0 70 100 175 c55 96 113 197 128 225 16 27 35 61 44 74 8 12
29 48 45 80 17 31 36 63 42 71 6 8 22 35 35 60 47 87 109 177 137 197 74 53
200 58 268 11z m-5914 -1551 c0 7 102 -50 320 -177 69 -40 143 -83 165 -96
365 -207 396 -229 429 -297 23 -51 27 -121 9 -178 -38 -117 -181 -192 -294
-153 -34 11 -553 305 -611 345 -15 11 -29 19 -32 19 -2 0 -39 20 -80 45 -42
25 -79 45 -81 45 -6 0 -43 30 -66 54 -77 79 -78 227 -4 314 50 59 156 99 218
81 15 -4 27 -5 27 -2z m7453 -7 c94 -44 141 -118 141 -220 0 -77 -25 -133 -78
-177 -19 -15 -108 -70 -198 -122 -90 -52 -248 -144 -353 -205 -283 -164 -299
-171 -370 -170 -138 2 -246 117 -232 247 3 29 7 59 9 68 10 44 78 119 130 141
15 7 28 16 28 20 0 5 4 8 9 8 5 0 161 88 348 196 186 108 356 205 378 215 53
25 134 24 188 -1z m-7102 -2133 c56 -28 106 -84 125 -139 38 -116 -14 -240
-123 -294 -36 -18 -68 -19 -543 -19 -498 0 -506 0 -545 22 -113 60 -159 192
-110 310 22 52 61 91 120 119 l50 24 495 -2 c455 -3 498 -4 531 -21z m7674 -1
c115 -53 166 -174 125 -295 -21 -64 -60 -106 -125 -137 l-50 -24 -495 3 c-453
2 -498 4 -531 20 -45 22 -93 69 -115 110 -36 71 -24 195 24 252 25 30 83 71
117 83 19 7 204 11 515 11 l485 1 50 -24z m-7219 -1705 c55 -25 81 -48 110
-97 46 -78 41 -192 -12 -261 -22 -29 -133 -113 -149 -113 -4 0 -48 -24 -98
-54 -312 -184 -571 -332 -616 -352 -105 -47 -235 -3 -296 100 -53 90 -39 209
33 282 38 39 802 487 859 504 49 15 126 10 169 -9z m4671 -1249 c15 -11 38
-31 49 -44 18 -19 292 -487 389 -663 15 -27 35 -61 45 -75 19 -29 52 -98 58
-120 9 -41 2 -112 -16 -152 -65 -149 -263 -190 -378 -80 -27 26 -85 117 -161
252 -11 19 -83 144 -161 278 -201 346 -209 367 -190 457 35 159 235 240 365
147z m-3434 14 c111 -46 173 -181 135 -292 -8 -21 -41 -84 -73 -139 -33 -55
-60 -102 -60 -105 0 -3 -8 -16 -17 -30 -15 -24 -148 -253 -191 -330 -124 -222
-166 -277 -236 -306 -77 -32 -190 -11 -253 47 -59 55 -89 164 -67 242 7 26
345 620 447 785 25 40 60 85 78 99 65 49 161 61 237 29z m1670 -450 c59 -22
103 -62 133 -121 l27 -56 0 -467 c0 -257 -3 -485 -7 -507 -28 -151 -199 -234
-341 -165 -52 25 -108 94 -123 150 -5 20 -9 245 -9 500 0 371 3 475 14 513 37
124 182 197 306 153z"/>
</g>
</svg>
